<svg width="44" height="42" viewBox="0 0 44 42" fill="none" xmlns="http://www.w3.org/2000/svg">
<path d="M19.9432 0.166672C25.1151 0.166672 29.3333 4.31251 29.3333 9.41667V19.3958H16.6153C15.7038 19.3958 14.9831 20.1042 14.9831 21C14.9831 21.875 15.7038 22.6042 16.6153 22.6042H29.3333V32.5625C29.3333 37.6667 25.1151 41.8333 19.9008 41.8333H9.57796C4.38477 41.8333 0.166626 37.6875 0.166626 32.5833V9.43751C0.166626 4.3125 4.40597 0.166672 9.59916 0.166672H19.9432ZM34.6254 13.8129C35.2504 13.1671 36.2712 13.1671 36.8962 13.7921L42.9795 19.8546C43.292 20.1671 43.4587 20.5629 43.4587 21.0004C43.4587 21.4171 43.292 21.8338 42.9795 22.1254L36.8962 28.1879C36.5837 28.5004 36.167 28.6671 35.7712 28.6671C35.3545 28.6671 34.9379 28.5004 34.6254 28.1879C34.0004 27.5629 34.0004 26.5421 34.6254 25.9171L37.9587 22.6046H29.3337V19.3963H37.9587L34.6254 16.0838C34.0004 15.4588 34.0004 14.4379 34.6254 13.8129Z" fill="black"/>
</svg>
