<svg width="50" height="50" viewBox="0 0 50 50" fill="none" xmlns="http://www.w3.org/2000/svg">
<path d="M35.4166 9.89583H33.3333V6.79166C33.3333 5.06249 31.9166 3.64583 30.1875 3.64583H19.8125C18.0833 3.64583 16.6666 5.06249 16.6666 6.79166V9.89583H14.5833C12.2916 9.89583 10.4166 11.7708 10.4166 14.0625V14.3333C11.0833 14.1458 11.7708 14.0625 12.5 14.0625H37.5C38.2291 14.0625 38.9166 14.1458 39.5833 14.3333V14.0625C39.5833 11.7708 37.7083 9.89583 35.4166 9.89583Z" fill="#1A222D"/>
<path d="M29.0209 35.2708C28.3542 35.2708 27.8334 35.8125 27.8334 36.4583C27.8334 37.1042 28.375 37.6458 29.0209 37.6458C29.6667 37.6458 30.2084 37.1042 30.2084 36.4583C30.2084 35.8125 29.6667 35.2708 29.0209 35.2708Z" fill="#1A222D"/>
<path d="M18.8959 37.1041C18.2292 37.1041 17.7084 37.6458 17.7084 38.2916C17.7084 38.9375 18.25 39.4791 18.8959 39.4791C19.5417 39.4791 20.0834 38.9375 20.0834 38.2916C20.0834 37.6458 19.5625 37.1041 18.8959 37.1041Z" fill="#1A222D"/>
<path d="M39.5833 17.4583C38.9166 17.2708 38.2291 17.1875 37.5 17.1875H12.5C11.7708 17.1875 11.0833 17.2708 10.4166 17.4583C6.83329 18.3958 4.16663 21.6667 4.16663 25.5208V38.0208C4.16663 42.6042 7.91663 46.3542 12.5 46.3542H37.5C42.0833 46.3542 45.8333 42.6042 45.8333 38.0208V25.5208C45.8333 21.6667 43.1666 18.3958 39.5833 17.4583ZM33.3333 27.6667V36.4583C33.3333 38.8333 31.3958 40.7708 29.0208 40.7708C26.6458 40.7708 24.7083 38.8333 24.7083 36.4583C24.7083 34.0833 26.6458 32.1458 29.0208 32.1458C29.4375 32.1458 29.8333 32.2292 30.2083 32.3333V29.7083L23.2291 31.6042V38.2917C23.2291 38.3125 23.2291 38.3333 23.2083 38.3542C23.1875 40.7083 21.25 42.625 18.8958 42.625C16.5208 42.625 14.5833 40.6875 14.5833 38.2917C14.5833 35.8958 16.5208 33.9792 18.8958 33.9792C19.3125 33.9792 19.7083 34.0625 20.1041 34.1667V30.4167V27.1875C20.1041 25.3958 21.2291 23.9375 22.9375 23.4792L28.4583 21.9583C30.2291 21.4792 31.3541 21.9375 31.9791 22.4167C32.6041 22.8958 33.3333 23.8333 33.3333 25.6875V27.6667Z" fill="#1A222D"/>
</svg>
