<svg width="23" height="23" viewBox="0 0 23 23" fill="none" xmlns="http://www.w3.org/2000/svg">
<path d="M8.375 19.3125C8.375 21.0384 6.62611 22.4375 4.46875 22.4375C2.31139 22.4375 0.5625 21.0384 0.5625 19.3125C0.5625 17.5866 2.31139 16.1875 4.46875 16.1875C6.62611 16.1875 8.375 17.5866 8.375 19.3125Z" fill="#0803FF"/>
<path d="M22.4375 16.1875C22.4375 17.9134 20.6886 19.3125 18.5312 19.3125C16.3739 19.3125 14.625 17.9134 14.625 16.1875C14.625 14.4616 16.3739 13.0625 18.5312 13.0625C20.6886 13.0625 22.4375 14.4616 22.4375 16.1875Z" fill="#0803FF"/>
<path fill-rule="evenodd" clip-rule="evenodd" d="M20.875 16.1875V2.12499H22.4375V16.1875H20.875ZM8.375 3.68749V19.3125H6.8125V3.68749H8.375Z" fill="#0803FF"/>
<path d="M6.8125 3.53903C6.8125 2.73629 7.42077 2.06416 8.21953 1.98429L20.7195 0.734286C21.6393 0.642304 22.4375 1.36462 22.4375 2.28903V3.68749L6.8125 5.24999V3.53903Z" fill="#0803FF"/>
</svg>
