<svg width="22" height="25" viewBox="0 0 22 25" fill="none" xmlns="http://www.w3.org/2000/svg">
<path d="M12.5 1.59256e-05L15.5947 0C15.8181 1.11721 16.4384 2.52665 17.5235 3.92491C18.5867 5.295 19.9955 6.25002 21.875 6.25002V9.37502C19.1353 9.37502 17.0767 8.10382 15.625 6.5178V17.1875C15.625 21.5022 12.1272 25 7.8125 25C3.49777 25 0 21.5022 0 17.1875C0 12.8728 3.49778 9.37502 7.8125 9.37502V12.5C5.22367 12.5 3.125 14.5987 3.125 17.1875C3.125 19.7764 5.22367 21.875 7.8125 21.875C10.4013 21.875 12.5 19.7764 12.5 17.1875V1.59256e-05Z" fill="#FFE600"/>
</svg>
