<svg width="75" height="69" viewBox="0 0 75 69" fill="none" xmlns="http://www.w3.org/2000/svg">
<g opacity="0.25">
<path d="M37.5 5.75C29.3125 5.75 22.6562 11.8738 22.6562 19.4062C22.6562 26.795 28.9375 32.775 37.125 33.0337C37.375 33.005 37.625 33.005 37.8125 33.0337C37.875 33.0337 37.9062 33.0337 37.9687 33.0337C38 33.0337 38 33.0337 38.0312 33.0337C46.0312 32.775 52.3125 26.795 52.3438 19.4062C52.3438 11.8738 45.6875 5.75 37.5 5.75Z" fill="black"/>
<path d="M53.3751 40.6812C44.6564 35.3337 30.4376 35.3337 21.6564 40.6812C17.6876 43.125 15.5001 46.4312 15.5001 49.9675C15.5001 53.5037 17.6876 56.7812 21.6251 59.1962C26.0001 61.8987 31.7501 63.25 37.5001 63.25C43.2501 63.25 49.0001 61.8987 53.3751 59.1962C57.3126 56.7525 59.5001 53.475 59.5001 49.91C59.4689 46.3737 57.3126 43.0962 53.3751 40.6812Z" fill="black"/>
</g>
</svg>
