<svg width="50" height="50" viewBox="0 0 50 50" fill="none" xmlns="http://www.w3.org/2000/svg">
<path d="M0 34.875C0 34.5989 0.223858 34.375 0.5 34.375H8.875C9.15114 34.375 9.375 34.5989 9.375 34.875V43.25C9.375 43.5261 9.15114 43.75 8.875 43.75H0.5C0.223858 43.75 0 43.5261 0 43.25V34.875Z" fill="#2BD4A4"/>
<path d="M12.5 25.5C12.5 25.2239 12.7239 25 13 25H21.375C21.6511 25 21.875 25.2239 21.875 25.5V43.25C21.875 43.5261 21.6511 43.75 21.375 43.75H13C12.7239 43.75 12.5 43.5261 12.5 43.25V25.5Z" fill="#00FF75"/>
<path d="M25 16.125C25 15.8489 25.2239 15.625 25.5 15.625H33.875C34.1511 15.625 34.375 15.8489 34.375 16.125V43.25C34.375 43.5261 34.1511 43.75 33.875 43.75H25.5C25.2239 43.75 25 43.5261 25 43.25V16.125Z" fill="#FFAC89"/>
<path d="M37.5 41.125C37.5 40.8489 37.7239 40.625 38 40.625H46.375C46.6511 40.625 46.875 40.8489 46.875 41.125V43.25C46.875 43.5261 46.6511 43.75 46.375 43.75H38C37.7239 43.75 37.5 43.5261 37.5 43.25V41.125Z" fill="#F10B0B"/>
</svg>
