<svg width="42" height="47" viewBox="0 0 42 47" fill="none" xmlns="http://www.w3.org/2000/svg">
<path d="M3.8125 3.125C2.08661 3.125 0.6875 4.52411 0.6875 6.25V9.375C0.6875 11.1009 2.08661 12.5 3.8125 12.5H5.375V40.625C5.375 44.0768 8.17322 46.875 11.625 46.875H30.375C33.8268 46.875 36.625 44.0768 36.625 40.625V12.5H38.1875C39.9134 12.5 41.3125 11.1009 41.3125 9.375V6.25C41.3125 4.52411 39.9134 3.125 38.1875 3.125H27.25C27.25 1.39911 25.8509 0 24.125 0H17.875C16.1491 0 14.75 1.39911 14.75 3.125H3.8125ZM13.1875 15.625C14.0504 15.625 14.75 16.3246 14.75 17.1875V39.0625C14.75 39.9254 14.0504 40.625 13.1875 40.625C12.3246 40.625 11.625 39.9254 11.625 39.0625L11.625 17.1875C11.625 16.3246 12.3246 15.625 13.1875 15.625ZM21 15.625C21.8629 15.625 22.5625 16.3246 22.5625 17.1875V39.0625C22.5625 39.9254 21.8629 40.625 21 40.625C20.1371 40.625 19.4375 39.9254 19.4375 39.0625V17.1875C19.4375 16.3246 20.1371 15.625 21 15.625ZM30.375 17.1875V39.0625C30.375 39.9254 29.6754 40.625 28.8125 40.625C27.9496 40.625 27.25 39.9254 27.25 39.0625V17.1875C27.25 16.3246 27.9496 15.625 28.8125 15.625C29.6754 15.625 30.375 16.3246 30.375 17.1875Z" fill="#FFAC89"/>
</svg>
