<svg width="50" height="50" viewBox="0 0 50 50" fill="none" xmlns="http://www.w3.org/2000/svg">
<path d="M20.9517 25.4334C21.1369 25.1557 21.1251 24.791 20.9226 24.5258C20.72 24.2606 20.3713 24.1533 20.0546 24.2588L15.3671 25.8213L15.8612 27.3037L18.3886 26.4612L16.5267 29.2541C16.3415 29.5318 16.3532 29.8965 16.5558 30.1617C16.7584 30.4269 17.1071 30.5342 17.4237 30.4287L19.9511 29.5862L18.0892 32.3791C17.904 32.6568 17.9157 33.0215 18.1183 33.2867C18.3209 33.5519 18.6696 33.6592 18.9862 33.5537L23.6737 31.9912L23.1796 30.5088L20.6523 31.3513L22.5142 28.5584C22.6994 28.2807 22.6876 27.916 22.4851 27.6508C22.2825 27.3856 21.9338 27.2783 21.6171 27.3838L19.0898 28.2263L20.9517 25.4334Z" fill="black"/>
<path d="M25 50C38.8071 50 50 38.8071 50 25C50 11.1929 38.8071 0 25 0C11.1929 0 0 11.1929 0 25C0 38.8071 11.1929 50 25 50ZM5.61867 35.1525L11.832 29.9748C11.2469 28.4282 10.9267 26.7515 10.9267 25C10.9267 17.2335 17.2227 10.9375 24.9892 10.9375C29.1077 10.9375 32.8127 12.708 35.3846 15.5294L23.4267 20.3125L26.5517 28.125L30.7181 37.8465C28.9682 38.628 27.0295 39.0625 24.9892 39.0625C23.2377 39.0625 21.561 38.7423 20.0144 38.1572L14.8337 44.3741C10.9051 42.3084 7.68168 39.0828 5.61867 35.1525ZM39.0517 25C39.0517 29.4636 36.9721 33.4415 33.7289 36.0176L29.6767 26.5625L38.9237 23.0949C39.0081 23.7179 39.0517 24.3538 39.0517 25Z" fill="black"/>
</svg>
