<svg width="47" height="26" viewBox="0 0 47 26" fill="none" xmlns="http://www.w3.org/2000/svg">
<path d="M35.6049 3.60485C36.215 2.99466 36.215 2.00534 35.6049 1.39515C34.9947 0.784951 34.0053 0.784951 33.3951 1.39515L12.625 22.1653L2.79235 12.3326C2.18216 11.7225 1.19284 11.7225 0.582646 12.3326C-0.0275486 12.9428 -0.0275486 13.9322 0.582646 14.5424L11.5201 25.4799C11.8132 25.7729 12.2106 25.9375 12.625 25.9375C13.0394 25.9375 13.4368 25.7729 13.7299 25.4799L35.6049 3.60485Z" fill="#1A222D"/>
<path d="M22.4576 25.4799L19.6562 22.6785L21.866 20.4688L23.5625 22.1653L44.3326 1.39515C44.9428 0.784951 45.9322 0.784951 46.5424 1.39515C47.1525 2.00534 47.1525 2.99466 46.5424 3.60485L24.6674 25.4799C24.3743 25.7729 23.9769 25.9375 23.5625 25.9375C23.1481 25.9375 22.7507 25.7729 22.4576 25.4799Z" fill="#1A222D"/>
<path d="M13.7299 12.3326L16.5312 15.134L14.3215 17.3438L11.5201 14.5424C10.91 13.9322 10.91 12.9428 11.5201 12.3326C12.1303 11.7225 13.1197 11.7225 13.7299 12.3326Z" fill="#1A222D"/>
</svg>
