<svg width="42" height="30" viewBox="0 0 42 30" fill="none" xmlns="http://www.w3.org/2000/svg">
<path d="M35.5833 0.458334C34.9166 0.270834 34.2291 0.1875 33.5 0.1875H8.49996C7.77079 0.1875 7.08329 0.270834 6.41663 0.458334C2.83329 1.39583 0.166626 4.66667 0.166626 8.52083V21.0208C0.166626 25.6042 3.91663 29.3542 8.49996 29.3542H33.5C38.0833 29.3542 41.8333 25.6042 41.8333 21.0208V8.52083C41.8333 4.66667 39.1666 1.39583 35.5833 0.458334ZM29.3333 10.6667V19.4583C29.3333 21.8333 27.3958 23.7708 25.0208 23.7708C22.6458 23.7708 20.7083 21.8333 20.7083 19.4583C20.7083 17.0833 22.6458 15.1458 25.0208 15.1458C25.4375 15.1458 25.8333 15.2292 26.2083 15.3333V12.7083L19.2291 14.6042V21.2917C19.2291 21.3125 19.2291 21.3333 19.2083 21.3542C19.1875 23.7083 17.25 25.625 14.8958 25.625C12.5208 25.625 10.5833 23.6875 10.5833 21.2917C10.5833 18.8958 12.5208 16.9792 14.8958 16.9792C15.3125 16.9792 15.7083 17.0625 16.1041 17.1667V13.4167V10.1875C16.1041 8.39583 17.2291 6.9375 18.9375 6.47917L24.4583 4.95833C26.2291 4.47917 27.3541 4.9375 27.9791 5.41667C28.6041 5.89583 29.3333 6.83333 29.3333 8.6875V10.6667Z" fill="#1A222D"/>
</svg>
